<?xml version="1.0" standalone="no"?>
<!DOCTYPE svg PUBLIC "-//W3C//DTD SVG 20010904//EN"
 "http://www.w3.org/TR/2001/REC-SVG-20010904/DTD/svg10.dtd">
<svg version="1.0" xmlns="http://www.w3.org/2000/svg"
 width="512.000000pt" height="512.000000pt" viewBox="0 0 512.000000 512.000000"
 preserveAspectRatio="xMidYMid meet">
<metadata>
Created by potrace 1.14, written by Peter Selinger 2001-2017
</metadata>
<g transform="translate(0.000000,512.000000) scale(0.100000,-0.100000)"
fill="#000000" stroke="none">
<path d="M841 5008 c-380 -38 -682 -330 -727 -703 -4 -33 -7 -832 -7 -1775 1
-1704 1 -1716 21 -1797 85 -336 344 -570 687 -619 59 -9 3420 -8 3488 0 260
33 485 187 610 416 45 82 85 204 93 284 9 87 9 3408 0 3486 -10 85 -10 85 -36
160 -66 199 -203 359 -390 458 -97 51 -161 72 -275 88 -60 9 -3378 10 -3464 2z
m926 -1297 c13 -1 37 -14 55 -30 l33 -29 1 -674 c0 -371 3 -679 7 -685 4 -6
67 -10 170 -10 l164 1 1 651 c0 357 1 665 1 683 1 23 10 43 30 63 l29 29 319
0 c352 0 352 0 377 -64 10 -24 13 -190 12 -694 -1 -655 -1 -663 19 -667 18 -3
285 -1 311 3 8 2 11 196 11 675 0 506 3 678 12 695 27 51 33 51 387 53 235 0
337 -3 356 -11 55 -26 53 24 53 -1124 0 -934 -2 -1061 -15 -1061 -8 0 -23 -17
-32 -37 -35 -74 61 -68 -1204 -68 -1132 0 -1183 1 -1293 34 -247 73 -455 305
-512 571 -15 70 -21 1581 -6 1627 20 62 23 63 326 68 152 3 296 4 321 3 25 -1
55 -2 67 -2z"/>
</g>
</svg>
